<svg width="24" height="24" viewBox="0 0 24 24" fill="currentColor" xmlns="http://www.w3.org/2000/svg">
<path d="M9 17C7.89668 17 7 17.8967 7 19C7 20.1033 7.89668 21 9 21C10.1033 21 11 20.1033 11 19C10.9963 17.8967 10.0996 17 9 17Z" />
<path d="M17 17C15.8967 17 15 17.8967 15 19C15 20.1033 15.8967 21 17 21C18.1033 21 19 20.1033 19 19C18.9963 17.8967 18.0996 17 17 17Z" />
<path d="M20.8725 5.48236C20.7635 5.34786 20.5998 5.271 20.4245 5.271H4.64996C4.47465 5.271 4.30712 5.3517 4.19804 5.4862C4.08895 5.62071 4.04999 5.79749 4.08895 5.96658L5.86159 13.5296C5.92003 13.7871 6.15379 13.9677 6.4226 13.9677H18.6986C18.9674 13.9677 19.2012 13.7832 19.2596 13.5257L20.9855 5.95889C21.0245 5.7898 20.9816 5.61686 20.8725 5.48236ZM17.3506 12.4574H8.9043C8.58484 12.4574 8.32771 12.2037 8.32771 11.8886C8.32771 11.5735 8.58484 11.3199 8.9043 11.3199H17.3506C17.6701 11.3199 17.9272 11.5735 17.9272 11.8886C17.9272 12.2037 17.6701 12.4574 17.3506 12.4574ZM18.0129 10.1862H8.24199C7.92253 10.1862 7.6654 9.93254 7.6654 9.61741C7.6654 9.30229 7.92253 9.04865 8.24199 9.04865H18.0168C18.3363 9.04865 18.5934 9.30229 18.5934 9.61741C18.5895 9.93254 18.3324 10.1862 18.0129 10.1862ZM18.8973 7.91497H7.35762C7.03816 7.91497 6.78103 7.66133 6.78103 7.34621C6.78103 7.03108 7.03816 6.77745 7.35762 6.77745H18.8973C19.2168 6.77745 19.4739 7.03108 19.4739 7.34621C19.4739 7.66133 19.2129 7.91497 18.8973 7.91497Z" />
<path d="M18.6056 17H7.07762C6.80881 17 6.57895 16.8194 6.51661 16.5619L3.61026 4.13368H1.5766C1.25713 4.13368 1 3.88004 1 3.56876C1 3.25748 1.25713 3 1.5766 3H4.06998C4.3388 3 4.56866 3.18062 4.63099 3.4381L7.53734 15.8625H18.6095C18.929 15.8625 19.1861 16.1161 19.1861 16.4312C19.1822 16.7464 18.9251 17 18.6056 17Z" />
</svg>
