<svg width="90" height="24" viewBox="0 0 90 24" fill="currentColor" xmlns="http://www.w3.org/2000/svg">
<path d="M5.10915 9.16469C6.11003 9.16469 6.98289 9.7115 7.47169 10.5198L9.14758 8.80808C8.21653 7.57182 6.76176 6.77539 5.10915 6.77539C2.29272 6.77539 0 9.11714 0 12.0057C0 14.8943 2.29272 17.2241 5.10915 17.2241C6.75013 17.2241 8.21653 16.4277 9.14758 15.1914L7.47169 13.4797C6.98289 14.288 6.11003 14.8348 5.10915 14.8348C3.57291 14.8348 2.32763 13.5629 2.32763 11.9938C2.33927 10.4366 3.58455 9.16469 5.10915 9.16469Z" />
<path d="M44.6907 7.02539H42.5493V16.9749H48.4499L49.7068 14.7876H44.6907V7.02539Z" />
<path d="M32.3882 16.9749H40.1857V14.7876H34.5296V12.9927H37.5788L38.7193 11.0076H34.5296V9.21261H40.1857V7.02539H32.3882V16.9749Z" />
<path d="M64.6384 12.9935H66.6751V13.9088C66.163 14.4675 65.4414 14.8241 64.6384 14.8241C63.1022 14.8241 61.8569 13.5522 61.8569 11.9831C61.8569 10.414 63.1022 9.15395 64.6384 9.15395C65.4996 9.15395 66.2561 9.54622 66.7682 10.1762L67.9902 8.06034C67.0941 7.26391 65.9302 6.76465 64.65 6.76465C61.822 6.76465 59.5409 9.1064 59.5409 11.9831C59.5409 14.8716 61.8336 17.2015 64.65 17.2015C66.3841 17.2015 67.9087 16.3219 68.8281 14.9786V11.2104H65.6742L64.6384 12.9935Z" />
<path d="M81.0826 7.02539V9.21261H84.3995V16.9749H86.5409V9.21261H88.5892L89.8462 7.02539H81.0826Z" />
<path d="M15.3162 6.77539C12.4881 6.77539 10.207 9.11714 10.207 11.9938C10.207 14.8824 12.4997 17.2122 15.3162 17.2122C18.1442 17.2122 20.4253 14.8705 20.4253 11.9938C20.4253 9.11714 18.1326 6.77539 15.3162 6.77539ZM15.3162 14.8348C13.7799 14.8348 12.5347 13.5629 12.5347 11.9938C12.5347 10.4247 13.7799 9.16469 15.3162 9.16469C16.8524 9.16469 18.0977 10.4366 18.0977 11.9938C18.0861 13.5629 16.8408 14.8348 15.3162 14.8348Z" />
<path d="M25.9527 7.02539H21.9375V16.9749H25.9527C28.6411 16.9749 30.829 14.752 30.829 11.9942C30.829 9.26016 28.6411 7.02539 25.9527 7.02539ZM25.9992 14.7163H24.0789V9.28393H25.9992C27.4656 9.28393 28.6527 10.4964 28.6527 11.9942C28.6527 13.5038 27.4656 14.7163 25.9992 14.7163Z" />
<path d="M77.3361 11.0076H72.8554V7.02539H70.714V16.9749H72.8554V12.9927H77.3361V16.9749H79.4775V7.02539H77.3361V11.0076Z" />
<path d="M51.8823 11.0193L54.1983 10.4487L51.1026 15.8336L53.663 15.1917L49.9969 24L57.585 12.9926L55.2807 13.5632L58.3764 8.17831L55.816 8.80832L59.482 0L51.8823 11.0193Z" />
</svg>
