<?xml version="1.0" encoding="utf-8"?>
<!-- Generator: Adobe Illustrator 23.0.1, SVG Export Plug-In . SVG Version: 6.00 Build 0)  -->
<svg version="1.1" id="Layer_1" xmlns="http://www.w3.org/2000/svg" xmlns:xlink="http://www.w3.org/1999/xlink" x="0px" y="0px"
	 viewBox="0 0 21.7 21.7" enable-background="new 0 0 21.7 21.7" xml:space="preserve">
<path fill-rule="evenodd" clip-rule="evenodd" d="M2.5,0.4l8.4,8.4l8.4-8.4c0.6-0.6,1.5-0.6,2.1,0
	c0.6,0.6,0.6,1.5,0,2.1L13,10.9l8.3,8.3c0.6,0.6,0.6,1.5,0,2.1l0,0c-0.6,0.6-1.5,0.6-2.1,0L10.9,13l-8.3,8.3c-0.6,0.6-1.5,0.6-2.1,0
	l0,0c-0.6-0.6-0.6-1.5,0-2.1l8.3-8.3L0.4,2.5c-0.6-0.6-0.6-1.5,0-2.1C1-0.1,1.9-0.1,2.5,0.4"/>
</svg>